<?xml version="1.0" encoding="utf-8"?>
<!-- Generator: Adobe Illustrator 24.1.2, SVG Export Plug-In . SVG Version: 6.00 Build 0)  -->
<svg version="1.1" id="Camada_1" xmlns="http://www.w3.org/2000/svg" xmlns:xlink="http://www.w3.org/1999/xlink" x="0px" y="0px"
	 viewBox="0 0 595.28 841.89" style="enable-background:new 0 0 595.28 841.89;" xml:space="preserve">
<style type="text/css">
	.st0{fill-rule:evenodd;clip-rule:evenodd;fill:#010202;}
	.st1{fill:#010202;}
</style>
<path class="st0" d="M302.01,567.41c25.5,0,46.55-18.28,49.77-41.96h-99.53C255.46,549.13,276.51,567.41,302.01,567.41z"/>
<path class="st1" d="M299.28,208.48c-74.59,0-135.06,55.61-135.06,124.21c0,38.95,19.7,75.24,53.06,98.7V410.6
	c-22.99-20.47-35.9-48.42-35.9-77.9c0-59.88,52.79-108.43,117.91-108.43c65.12,0,117.91,48.55,117.91,108.43
	c0,28.8-12.31,56.15-34.37,76.52v21.09c32.46-23.51,51.53-59.29,51.53-97.61C434.34,264.09,373.87,208.48,299.28,208.48z"/>
<g>
	<g>
		<path class="st0" d="M299.28,284.24h4.23h53.47c23.25,0,42.28,19.03,42.28,42.28v0.4c0,23.25-19.03,42.28-42.28,42.28h-28.1
			v108.31h-4.23V369.2h-4.23v58.88h-4.23V369.2h-4.23l-0.04,86.01h-4.23l0.04-86.01h-4.23l0.11,70.91h-4.23l-0.11-70.91v-1.76v-2.46
			h57.7c20.92,0,38.05-17.13,38.05-38.05v-0.4c0-20.92-17.13-38.05-38.05-38.05h-53.47v51.14h4.23v-42.68v-4.23h4.23h45.02
			c18.58,0,33.82,15.24,33.82,33.82v0.4c0,18.58-15.24,33.82-33.82,33.82h-57.7v-4.23h57.7c16.25,0,29.59-13.34,29.59-29.59v-0.4
			c0-16.25-13.34-29.59-29.59-29.59h-45.02v42.68h4.23v-34.22v-4.23h4.23h36.56c13.92,0,25.37,11.45,25.37,25.37v0.4
			c0,13.92-11.45,25.37-25.37,25.37h-57.7v-4.23h57.7c11.58,0,21.14-9.55,21.14-21.14v-0.4c0-11.58-9.55-21.14-21.14-21.14h-36.56
			v34.22h4.23v-25.77v-4.23h4.23h28.1c9.25,0,16.91,7.66,16.91,16.91v0.4c0,9.25-7.66,16.91-16.91,16.91h-57.7v-3.19v-1.04v-51.14
			V284.24L299.28,284.24z M328.87,313.84v25.77h28.1c6.92,0,12.68-5.77,12.68-12.68v-0.4c0-6.92-5.77-12.68-12.68-12.68H328.87z"/>
	</g>
	<g>
		<path class="st0" d="M299.28,284.24v4.26V340v1.05v3.21h-58.11c-9.32,0-17.03-7.71-17.03-17.03v-0.41
			c0-9.32,7.71-17.03,17.03-17.03h28.31h4.26v4.26V340h4.26v-34.47h-36.82c-11.67,0-21.29,9.62-21.29,21.29v0.41
			c0,11.67,9.62,21.29,21.29,21.29h58.11v4.26h-58.11c-14.02,0-25.55-11.53-25.55-25.55v-0.41c0-14.02,11.53-25.55,25.55-25.55
			h36.82h4.26v4.26V340h4.26v-42.99h-45.34c-16.37,0-29.81,13.44-29.81,29.81v0.41c0,16.37,13.44,29.81,29.81,29.81h58.11v4.26
			h-58.11c-18.72,0-34.06-15.35-34.06-34.06v-0.41c0-18.72,15.35-34.06,34.06-34.06h45.34h4.26v4.26V340h4.26v-51.5h-53.86
			c-21.07,0-38.32,17.26-38.32,38.32v0.41c0,21.07,17.25,38.32,38.32,38.32h58.11v2.48v1.78l-0.17,98.46h-4.26l0.17-98.46h-4.26
			v64.03h-4.26v-64.03h-4.26l0.77,74.59h-4.26l-0.77-74.59h-4.26l0.11,42.02h-4.26l-0.11-42.02h-28.31
			c-23.42,0-42.58-19.16-42.58-42.58v-0.41c0-23.42,19.16-42.58,42.58-42.58h53.86H299.28L299.28,284.24z M241.16,314.05
			c-6.97,0-12.77,5.81-12.77,12.77v0.41c0,6.97,5.81,12.77,12.77,12.77h28.31v-25.96H241.16z"/>
	</g>
</g>
<path class="st0" d="M347.93,475.31h-91.84c-4.33,0-7.88,4-7.88,8.9v0c0,4.89,3.54,8.9,7.88,8.9h91.84c4.33,0,7.88-4.01,7.88-8.9v0
	C355.81,479.32,352.26,475.31,347.93,475.31z"/>
<path class="st0" d="M347.93,499.58h-91.84c-4.33,0-7.88,4-7.88,8.9v0c0,4.89,3.54,8.9,7.88,8.9h91.84c4.33,0,7.88-4.01,7.88-8.9v0
	C355.81,503.58,352.26,499.58,347.93,499.58z"/>
<g>
</g>
<g>
</g>
<g>
</g>
<g>
</g>
<g>
</g>
<g>
</g>
</svg>
